<svg width="292" height="52" viewBox="0 0 292 52" fill="none" xmlns="http://www.w3.org/2000/svg">
<path d="M22.092 5.54321C26.46 5.54321 30.2505 6.10645 33.474 7.22888C36.6922 8.3432 39.1755 9.94378 40.929 12.0265C42.6772 14.1012 43.554 16.5406 43.554 19.3365C43.554 22.1487 42.6772 24.584 40.929 26.6465C39.1755 28.7009 36.6922 30.2893 33.474 31.4117C30.2505 32.526 26.46 33.0812 22.092 33.0812H13.671V42.8386H0V5.54321H22.092ZM21.252 24.7825C24.066 24.7825 26.187 24.3125 27.615 23.3724C29.043 22.4242 29.757 21.0789 29.757 19.3365C29.757 17.5982 29.043 16.2529 27.615 15.3006C26.187 14.3403 24.066 13.8581 21.252 13.8581H13.671V24.7825H21.252Z" fill="#1ABC9C"/>
<path d="M45.0102 13.9554H58.1142V42.8386H45.0102V13.9554ZM51.5622 10.7623C49.1682 10.7623 47.2362 10.2518 45.7662 9.22254C44.2962 8.19736 43.5612 6.91691 43.5612 5.38117C43.5612 3.85758 44.2962 2.58523 45.7662 1.556C47.2362 0.518667 49.1682 0 51.5622 0C53.9562 0 55.8882 0.494355 57.3582 1.47496C58.8282 2.44746 59.5632 3.6955 59.5632 5.21908C59.5632 6.81966 58.8282 8.14469 57.3582 9.19012C55.8882 10.2396 53.9562 10.7623 51.5622 10.7623Z" fill="#1ABC9C"/>
<path d="M85.7262 13.4851C90.3725 13.4851 94.1105 14.5508 96.9402 16.6781C99.7647 18.8095 101.182 22.0228 101.182 26.3221V42.8384H88.0782V27.9754C88.0782 24.0327 86.0255 22.0593 81.9252 22.0593C79.6677 22.0593 77.8617 22.6266 76.5072 23.7612C75.1475 24.8958 74.4702 26.6058 74.4702 28.883V42.8384H61.3662V13.9551H73.8402V17.0996C75.3207 15.9326 77.0742 15.0411 79.0902 14.4252C81.1167 13.8012 83.3322 13.4851 85.7262 13.4851Z" fill="#1ABC9C"/>
<path d="M129.969 41.6715C128.861 42.2023 127.512 42.6075 125.916 42.8871C124.331 43.1788 122.645 43.3247 120.855 43.3247C115.983 43.3247 112.229 42.4008 109.599 40.5531C106.979 38.7053 105.672 35.9499 105.672 32.2868V22.5943H100.212V15.025H105.672V7.52051H118.776V15.025H127.344V22.5943H118.776V32.1896C118.776 33.2188 119.133 34.0211 119.847 34.6046C120.561 35.1881 121.517 35.4799 122.724 35.4799C124.236 35.4799 125.564 35.1841 126.714 34.5884L129.969 41.6715Z" fill="#FF914D"/>
<path d="M145.708 13.4851C151.924 13.4851 156.66 14.5792 159.925 16.7592C163.186 18.9433 164.818 22.2943 164.818 26.8084V42.8384H152.617V39.1105C150.727 41.9226 147.042 43.3247 141.571 43.3247C138.673 43.3247 136.159 42.9357 134.032 42.1577C131.917 41.3715 130.321 40.3099 129.244 38.9808C128.163 37.6436 127.627 36.1241 127.627 34.4263C127.627 31.6952 128.977 29.5719 131.68 28.0564C134.395 26.545 138.589 25.7872 144.259 25.7872H151.714C151.473 22.732 148.827 21.2003 143.776 21.2003C141.981 21.2003 140.164 21.4272 138.316 21.881C136.479 22.3268 134.92 22.9346 133.633 23.7126L129.202 16.8402C131.271 15.7705 133.791 14.9439 136.762 14.3604C139.729 13.7769 142.711 13.4851 145.708 13.4851ZM145.225 36.9224C146.737 36.9224 148.066 36.6428 149.215 36.0795C150.376 35.5082 151.21 34.6694 151.714 33.5672V31.0711H146.044C142.222 31.0711 140.311 32.0436 140.311 33.9886C140.311 34.8882 140.742 35.6014 141.613 36.1281C142.495 36.659 143.698 36.9224 145.225 36.9224Z" fill="#1ABC9C"/>
<path d="M167.866 3.3064H180.97V42.8385H167.866V3.3064Z" fill="#1ABC9C"/>
<path d="M222.463 28.4616C222.463 28.5264 222.389 29.3612 222.253 30.9577H195.058C195.604 32.4489 196.664 33.5956 198.25 34.3939C199.846 35.1962 201.841 35.5933 204.235 35.5933C206.025 35.5933 207.574 35.3988 208.876 35.0098C210.188 34.6208 211.522 33.9805 212.866 33.081L219.754 38.6242C216.126 41.7605 210.813 43.3247 203.815 43.3247C199.447 43.3247 195.604 42.6885 192.286 41.4121C188.968 40.1276 186.395 38.3487 184.579 36.0795C182.773 33.8023 181.87 31.2251 181.87 28.3481C181.87 25.5076 182.752 22.9629 184.516 20.714C186.29 18.457 188.742 16.6903 191.866 15.4139C195 14.1294 198.523 13.4851 202.429 13.4851C206.167 13.4851 209.548 14.0808 212.572 15.268C215.606 16.4593 218.016 18.1815 219.796 20.4385C221.57 22.6995 222.463 25.3739 222.463 28.4616ZM202.513 20.6816C200.481 20.6816 198.785 21.1273 197.431 22.0107C196.071 22.8981 195.21 24.1016 194.848 25.6251H210.157C209.789 24.1016 208.928 22.8981 207.574 22.0107C206.214 21.1273 204.529 20.6816 202.513 20.6816Z" fill="#1ABC9C"/>
<path d="M247.653 13.4851C252.299 13.4851 256.037 14.5508 258.867 16.6781C261.691 18.8095 263.109 22.0228 263.109 26.3221V42.8384H250.005V27.9754C250.005 24.0327 247.952 22.0593 243.852 22.0593C241.594 22.0593 239.788 22.6266 238.434 23.7612C237.074 24.8958 236.397 26.6058 236.397 28.883V42.8384H223.293V13.9551H235.767V17.0996C237.247 15.9326 239.001 15.0411 241.017 14.4252C243.043 13.8012 245.259 13.4851 247.653 13.4851Z" fill="#FF914D"/>
<path d="M291.895 41.6715C290.787 42.2023 289.438 42.6075 287.842 42.8871C286.256 43.1788 284.571 43.3247 282.781 43.3247C277.909 43.3247 274.155 42.4008 271.525 40.5531C268.905 38.7053 267.598 35.9499 267.598 32.2868V22.5943H262.138V15.025H267.598V7.52051H280.702V15.025H289.27V22.5943H280.702V32.1896C280.702 33.2188 281.059 34.0211 281.773 34.6046C282.487 35.1881 283.442 35.4799 284.65 35.4799C286.162 35.4799 287.49 35.1841 288.64 34.5884L291.895 41.6715Z" fill="#1ABC9C"/>
<mask id="mask0_2001_100" style="mask-type:luminance" maskUnits="userSpaceOnUse" x="223" y="18" width="31" height="25">
<path d="M223.237 18.6292H253.362V42.5932H223.237V18.6292Z" fill="white"/>
</mask>
<g mask="url(#mask0_2001_100)">
<path d="M223.237 18.6292H253.362V42.6094H223.237V18.6292Z" fill="#FF914D"/>
</g>
<mask id="mask1_2001_100" style="mask-type:luminance" maskUnits="userSpaceOnUse" x="219" y="19" width="30" height="33">
<path d="M219.888 19.7192H248.112V51.8766H219.888V19.7192Z" fill="white"/>
</mask>
<g mask="url(#mask1_2001_100)">
<mask id="mask2_2001_100" style="mask-type:luminance" maskUnits="userSpaceOnUse" x="219" y="18" width="33" height="35">
<path d="M219.715 47.3868L231.706 18.3901L251.094 23.1675L239.103 52.1602L219.715 47.3868Z" fill="white"/>
</mask>
<g mask="url(#mask2_2001_100)">
<mask id="mask3_2001_100" style="mask-type:luminance" maskUnits="userSpaceOnUse" x="220" y="20" width="28" height="32">
<path d="M228.34 26.7334L220.408 45.92C220.066 46.7386 220.654 47.6138 221.715 47.8772L237.181 51.6862C238.242 51.9495 239.376 51.4957 239.717 50.6772L247.65 31.4906C248.044 30.5424 247.933 29.5132 247.34 28.6258L242.615 21.563C242.106 20.7971 240.888 20.4973 239.901 20.8903L230.745 24.5372C229.6 24.9951 228.734 25.7852 228.34 26.7334Z" fill="white"/>
</mask>
<g mask="url(#mask3_2001_100)">
<path d="M219.793 47.4031L232.026 17.8269L251.335 22.5841L239.103 52.1602L219.793 47.4031Z" fill="white"/>
</g>
</g>
</g>
<mask id="mask4_2001_100" style="mask-type:luminance" maskUnits="userSpaceOnUse" x="236" y="23" width="7" height="7">
<path d="M236.016 23.8687H242.736V29.0553H236.016V23.8687Z" fill="white"/>
</mask>
<g mask="url(#mask4_2001_100)">
<mask id="mask5_2001_100" style="mask-type:luminance" maskUnits="userSpaceOnUse" x="235" y="23" width="8" height="6">
<path d="M237.365 23.4796L242.741 24.8046L241.024 28.954L235.648 27.6289L237.365 23.4796Z" fill="white"/>
</mask>
<g mask="url(#mask5_2001_100)">
<mask id="mask6_2001_100" style="mask-type:luminance" maskUnits="userSpaceOnUse" x="236" y="24" width="7" height="5">
<path d="M240.053 24.1401C238.567 23.7754 236.982 24.4075 236.504 25.5543C236.032 26.701 236.851 27.9247 238.336 28.2894C239.822 28.6582 241.408 28.026 241.885 26.8793C242.358 25.7326 241.539 24.5048 240.053 24.1401Z" fill="white"/>
</mask>
<g mask="url(#mask6_2001_100)">
<path d="M237.365 23.4796L242.741 24.8046L241.024 28.954L235.648 27.6289L237.365 23.4796Z" fill="black"/>
</g>
</g>
</g>
</svg>
