<svg width="165" height="54" viewBox="0 0 165 54" fill="none" xmlns="http://www.w3.org/2000/svg">
<path d="M20.9743 14.0262C23.1441 14.0262 25.0271 14.3845 26.6284 15.0985C28.227 15.8073 29.4606 16.8255 30.3317 18.1504C31.2001 19.4701 31.6356 21.0219 31.6356 22.8004C31.6356 24.5893 31.2001 26.1385 30.3317 27.4505C29.4606 28.7573 28.227 29.7678 26.6284 30.4818C25.0271 31.1906 23.1441 31.5437 20.9743 31.5437H16.7911V37.7507H10V14.0262H20.9743ZM20.557 26.2648C21.9549 26.2648 23.0085 25.9658 23.7179 25.3677C24.4272 24.7646 24.7819 23.9088 24.7819 22.8004C24.7819 21.6946 24.4272 20.8389 23.7179 20.2331C23.0085 19.6222 21.9549 19.3155 20.557 19.3155H16.7911V26.2648H20.557Z" fill="#1ABC9C"/>
<path d="M32.359 19.3773H38.8684V37.7507H32.359V19.3773ZM35.6137 17.3462C34.4245 17.3462 33.4647 17.0214 32.7345 16.3667C32.0043 15.7145 31.6392 14.9 31.6392 13.9231C31.6392 12.9539 32.0043 12.1445 32.7345 11.4898C33.4647 10.8299 34.4245 10.5 35.6137 10.5C36.8029 10.5 37.7627 10.8145 38.4929 11.4383C39.2231 12.0569 39.5882 12.8508 39.5882 13.82C39.5882 14.8381 39.2231 15.681 38.4929 16.3461C37.7627 17.0137 36.8029 17.3462 35.6137 17.3462Z" fill="#1ABC9C"/>
<path d="M52.5849 19.0783C54.8929 19.0783 56.7498 19.7563 58.1555 21.1095C59.5586 22.4653 60.2627 24.5094 60.2627 27.2443V37.7507H53.7533V28.2959C53.7533 25.7879 52.7335 24.5326 50.6967 24.5326C49.5753 24.5326 48.6782 24.8935 48.0053 25.6152C47.3298 26.3369 46.9934 27.4247 46.9934 28.8733V37.7507H40.4839V19.3773H46.6805V21.3776C47.4159 20.6352 48.287 20.0681 49.2884 19.6763C50.2951 19.2794 51.3957 19.0783 52.5849 19.0783Z" fill="#1ABC9C"/>
<path d="M74.5627 37.0083C74.0124 37.346 73.3422 37.6038 72.5493 37.7816C71.7617 37.9672 70.9246 38.06 70.0353 38.06C67.6151 38.06 65.7504 37.4723 64.4438 36.2969C63.1424 35.1215 62.493 33.3687 62.493 31.0386V24.8729H59.7808V20.0579H62.493V15.2841H69.0025V20.0579H73.2587V24.8729H69.0025V30.9767C69.0025 31.6314 69.1799 32.1418 69.5345 32.513C69.8892 32.8841 70.3639 33.0697 70.9637 33.0697C71.7148 33.0697 72.3746 32.8816 72.9457 32.5026L74.5627 37.0083Z" fill="#FF914D"/>
<path d="M82.3814 19.0783C85.4692 19.0783 87.8216 19.7743 89.4437 21.1611C91.0633 22.5504 91.8743 24.6821 91.8743 27.5536V37.7507H85.8134V35.3793C84.8746 37.1681 83.0438 38.06 80.3263 38.06C78.8867 38.06 77.6375 37.8125 76.5812 37.3176C75.5302 36.8176 74.7374 36.1422 74.2028 35.2968C73.6655 34.4462 73.3995 33.4795 73.3995 32.3995C73.3995 30.6622 74.0698 29.3115 75.4129 28.3475C76.7612 27.386 78.845 26.904 81.6616 26.904H85.3649C85.2449 24.9605 83.9305 23.9861 81.4216 23.9861C80.5297 23.9861 79.6273 24.1305 78.7093 24.4192C77.7966 24.7027 77.022 25.0894 76.383 25.5843L74.1819 21.2126C75.2095 20.5321 76.4613 20.0063 77.9374 19.6351C79.4109 19.2639 80.8922 19.0783 82.3814 19.0783ZM82.1414 33.9873C82.8925 33.9873 83.5523 33.8095 84.1235 33.4512C84.6998 33.0877 85.1145 32.5542 85.3649 31.8531V30.2652H82.5483C80.6497 30.2652 79.7004 30.8839 79.7004 32.1211C79.7004 32.6934 79.9142 33.147 80.3471 33.4821C80.7853 33.8198 81.3825 33.9873 82.1414 33.9873Z" fill="#1ABC9C"/>
<path d="M93.3881 12.6033H99.8976V37.7507H93.3881V12.6033Z" fill="#1ABC9C"/>
<path d="M120.509 28.6053C120.509 28.6465 120.473 29.1775 120.405 30.1931H106.896C107.167 31.1416 107.694 31.8711 108.482 32.3789C109.274 32.8893 110.265 33.1419 111.455 33.1419C112.344 33.1419 113.113 33.0181 113.76 32.7707C114.412 32.5232 115.074 32.116 115.742 31.5437L119.164 35.0699C117.362 37.065 114.722 38.06 111.246 38.06C109.076 38.06 107.167 37.6553 105.519 36.8433C103.871 36.0262 102.593 34.8947 101.69 33.4512C100.793 32.0026 100.345 30.3632 100.345 28.5331C100.345 26.7262 100.783 25.1074 101.659 23.6768C102.541 22.2411 103.759 21.1172 105.31 20.3053C106.867 19.4882 108.617 19.0783 110.558 19.0783C112.414 19.0783 114.094 19.4573 115.596 20.2125C117.103 20.9703 118.301 22.0658 119.185 23.5015C120.066 24.9399 120.509 26.6411 120.509 28.6053ZM110.599 23.6562C109.59 23.6562 108.748 23.9397 108.075 24.5017C107.399 25.0662 106.972 25.8317 106.792 26.8009H114.396C114.214 25.8317 113.786 25.0662 113.113 24.5017C112.438 23.9397 111.601 23.6562 110.599 23.6562Z" fill="#1ABC9C"/>
<path d="M133.023 19.0783C135.331 19.0783 137.188 19.7563 138.593 21.1095C139.996 22.4653 140.701 24.5094 140.701 27.2443V37.7507H134.191V28.2959C134.191 25.7879 133.171 24.5326 131.135 24.5326C130.013 24.5326 129.116 24.8935 128.443 25.6152C127.768 26.3369 127.431 27.4247 127.431 28.8733V37.7507H120.922V19.3773H127.118V21.3776C127.854 20.6352 128.725 20.0681 129.726 19.6763C130.733 19.2794 131.834 19.0783 133.023 19.0783Z" fill="#FF914D"/>
<path d="M155 37.0083C154.45 37.346 153.779 37.6038 152.987 37.7816C152.199 37.9672 151.362 38.06 150.473 38.06C148.052 38.06 146.188 37.4723 144.881 36.2969C143.58 35.1215 142.93 33.3687 142.93 31.0386V24.8729H140.218V20.0579H142.93V15.2841H149.44V20.0579H153.696V24.8729H149.44V30.9767C149.44 31.6314 149.617 32.1418 149.972 32.513C150.327 32.8841 150.801 33.0697 151.401 33.0697C152.152 33.0697 152.812 32.8816 153.383 32.5026L155 37.0083Z" fill="#1ABC9C"/>
<path d="M122.799 29.4696C122.849 29.389 122.968 29.2568 123.392 28.9907C123.81 28.7288 124.466 28.3716 125.522 27.8207C126.973 27.064 127.765 26.6853 128.252 26.5511C128.486 26.4867 128.589 26.4971 128.634 26.5087C128.668 26.5175 128.716 26.5387 128.808 26.6413C128.808 26.6413 128.809 26.6414 128.809 26.6417C128.813 26.6469 128.86 26.7122 128.96 26.8771C129.053 27.0309 129.173 27.2377 129.312 27.484C129.589 27.9758 129.935 28.615 130.282 29.2815C130.806 30.2896 131.114 30.9081 131.292 31.335C131.466 31.7529 131.498 31.9485 131.5 32.1165C131.5 32.1073 131.5 32.1078 131.497 32.122C131.494 32.1418 131.486 32.1882 131.468 32.2717C131.441 32.3933 131.4 32.5573 131.346 32.7605C131.238 33.1661 131.081 33.7107 130.891 34.3497C130.511 35.6269 130 37.2685 129.476 38.9017C128.952 40.535 128.417 42.1566 127.99 43.3938C127.777 44.013 127.592 44.5325 127.449 44.9078C127.378 45.0962 127.319 45.2432 127.274 45.3465C127.259 45.3815 127.246 45.409 127.236 45.4298C127.219 45.4392 127.196 45.4501 127.167 45.4606C127.097 45.4857 127.018 45.5 126.95 45.5C126.953 45.5 126.952 45.4999 126.947 45.4993C126.936 45.4979 126.902 45.4937 126.836 45.4808C126.752 45.4645 126.641 45.4395 126.504 45.4058C126.231 45.3385 125.874 45.2409 125.457 45.1213C124.625 44.8825 123.575 44.5602 122.537 44.2284C121.499 43.8965 120.479 43.5565 119.706 43.2824C119.319 43.1451 119 43.0261 118.773 42.934C118.677 42.8949 118.603 42.8629 118.55 42.8379C118.544 42.8206 118.537 42.801 118.53 42.7797C118.513 42.7201 118.504 42.6662 118.501 42.6294C118.501 42.628 118.501 42.6265 118.502 42.6249C118.507 42.5979 118.516 42.5575 118.53 42.5022C118.558 42.3921 118.6 42.2398 118.655 42.0485C118.764 41.6669 118.922 41.1452 119.114 40.5279C119.496 39.2941 120.01 37.6884 120.535 36.0799C121.06 34.4715 121.596 32.8625 122.021 31.6225C122.233 31.0021 122.418 30.4762 122.559 30.0896C122.629 29.896 122.688 29.7403 122.734 29.6264C122.768 29.5406 122.788 29.4955 122.796 29.4775C122.801 29.4679 122.802 29.466 122.799 29.4697L122.799 29.4696ZM127.215 45.4719C127.215 45.4718 127.215 45.4703 127.217 45.4675C127.215 45.4706 127.215 45.4719 127.215 45.4719ZM118.498 42.6462C118.498 42.6473 118.498 42.6479 118.498 42.6479L118.498 42.6462Z" fill="white" stroke="#1ABC9C"/>
<circle cx="127" cy="31" r="1" fill="black"/>
</svg>
