<svg xmlns="http://www.w3.org/2000/svg" xmlns:xlink="http://www.w3.org/1999/xlink" width="500" zoomAndPan="magnify" viewBox="0 0 375 374.999991" height="500" preserveAspectRatio="xMidYMid meet" version="1.0"><defs><g/><clipPath id="b49f672a93"><path d="M 246.492188 181.949219 L 268.90625 181.949219 L 268.90625 205.050781 L 246.492188 205.050781 Z M 246.492188 181.949219 " clip-rule="nonzero"/></clipPath><clipPath id="3fe08d0179"><path d="M 244 183 L 265 183 L 265 214 L 244 214 Z M 244 183 " clip-rule="nonzero"/></clipPath><clipPath id="b2b1b9a97e"><path d="M 243.871094 209.671875 L 252.792969 181.71875 L 267.21875 186.324219 L 258.296875 214.273438 Z M 243.871094 209.671875 " clip-rule="nonzero"/></clipPath><clipPath id="74fd503b97"><path d="M 250.289062 189.761719 L 244.386719 208.257812 C 244.132812 209.046875 244.570312 209.890625 245.359375 210.144531 L 256.867188 213.816406 C 257.65625 214.070312 258.5 213.632812 258.753906 212.84375 L 264.65625 194.347656 C 264.949219 193.433594 264.867188 192.441406 264.425781 191.585938 L 260.910156 184.777344 C 260.53125 184.039062 259.625 183.75 258.890625 184.128906 L 252.078125 187.644531 C 251.226562 188.085938 250.582031 188.847656 250.289062 189.761719 Z M 250.289062 189.761719 " clip-rule="nonzero"/></clipPath><clipPath id="f1ac79073c"><path d="M 256 187 L 261 187 L 261 192 L 256 192 Z M 256 187 " clip-rule="nonzero"/></clipPath><clipPath id="956abb879b"><path d="M 257.003906 186.625 L 261.003906 187.902344 L 259.726562 191.902344 L 255.726562 190.625 Z M 257.003906 186.625 " clip-rule="nonzero"/></clipPath><clipPath id="0cab962049"><path d="M 259.003906 187.261719 C 257.898438 186.910156 256.71875 187.519531 256.363281 188.625 C 256.011719 189.730469 256.621094 190.910156 257.726562 191.261719 C 258.832031 191.617188 260.011719 191.007812 260.367188 189.902344 C 260.71875 188.796875 260.109375 187.613281 259.003906 187.261719 Z M 259.003906 187.261719 " clip-rule="nonzero"/></clipPath></defs><g fill="#1abc9c" fill-opacity="1"><g transform="translate(76.799186, 205.287234)"><g><path d="M 20.03125 -35.953125 C 23.28125 -35.953125 26.101562 -35.410156 28.5 -34.328125 C 30.894531 -33.253906 32.742188 -31.710938 34.046875 -29.703125 C 35.347656 -27.703125 36 -25.351562 36 -22.65625 C 36 -19.945312 35.347656 -17.597656 34.046875 -15.609375 C 32.742188 -13.628906 30.894531 -12.097656 28.5 -11.015625 C 26.101562 -9.941406 23.28125 -9.40625 20.03125 -9.40625 L 13.765625 -9.40625 L 13.765625 0 L 3.59375 0 L 3.59375 -35.953125 Z M 19.40625 -17.40625 C 21.5 -17.40625 23.078125 -17.859375 24.140625 -18.765625 C 25.203125 -19.679688 25.734375 -20.976562 25.734375 -22.65625 C 25.734375 -24.332031 25.203125 -25.628906 24.140625 -26.546875 C 23.078125 -27.472656 21.5 -27.9375 19.40625 -27.9375 L 13.765625 -27.9375 L 13.765625 -17.40625 Z M 19.40625 -17.40625 "/></g></g></g><g fill="#1abc9c" fill-opacity="1"><g transform="translate(110.741974, 205.287234)"><g><path d="M 3.140625 -27.84375 L 12.890625 -27.84375 L 12.890625 0 L 3.140625 0 Z M 8.015625 -30.921875 C 6.234375 -30.921875 4.796875 -31.414062 3.703125 -32.40625 C 2.609375 -33.394531 2.0625 -34.628906 2.0625 -36.109375 C 2.0625 -37.578125 2.609375 -38.804688 3.703125 -39.796875 C 4.796875 -40.796875 6.234375 -41.296875 8.015625 -41.296875 C 9.796875 -41.296875 11.234375 -40.820312 12.328125 -39.875 C 13.421875 -38.9375 13.96875 -37.734375 13.96875 -36.265625 C 13.96875 -34.722656 13.421875 -33.445312 12.328125 -32.4375 C 11.234375 -31.425781 9.796875 -30.921875 8.015625 -30.921875 Z M 8.015625 -30.921875 "/></g></g></g><g fill="#1abc9c" fill-opacity="1"><g transform="translate(122.91168, 205.287234)"><g><path d="M 21.265625 -28.296875 C 24.722656 -28.296875 27.503906 -27.269531 29.609375 -25.21875 C 31.710938 -23.164062 32.765625 -20.066406 32.765625 -15.921875 L 32.765625 0 L 23.015625 0 L 23.015625 -14.328125 C 23.015625 -18.128906 21.488281 -20.03125 18.4375 -20.03125 C 16.757812 -20.03125 15.414062 -19.484375 14.40625 -18.390625 C 13.394531 -17.296875 12.890625 -15.648438 12.890625 -13.453125 L 12.890625 0 L 3.140625 0 L 3.140625 -27.84375 L 12.421875 -27.84375 L 12.421875 -24.8125 C 13.523438 -25.9375 14.828125 -26.796875 16.328125 -27.390625 C 17.835938 -27.992188 19.484375 -28.296875 21.265625 -28.296875 Z M 21.265625 -28.296875 "/></g></g></g><g fill="#ff914d" fill-opacity="1"><g transform="translate(154.752306, 205.287234)"><g><path d="M 22.34375 -1.125 C 21.519531 -0.613281 20.515625 -0.222656 19.328125 0.046875 C 18.148438 0.328125 16.894531 0.46875 15.5625 0.46875 C 11.9375 0.46875 9.144531 -0.421875 7.1875 -2.203125 C 5.238281 -3.984375 4.265625 -6.640625 4.265625 -10.171875 L 4.265625 -19.515625 L 0.203125 -19.515625 L 0.203125 -26.8125 L 4.265625 -26.8125 L 4.265625 -34.046875 L 14.015625 -34.046875 L 14.015625 -26.8125 L 20.390625 -26.8125 L 20.390625 -19.515625 L 14.015625 -19.515625 L 14.015625 -10.265625 C 14.015625 -9.273438 14.28125 -8.5 14.8125 -7.9375 C 15.34375 -7.375 16.054688 -7.09375 16.953125 -7.09375 C 18.078125 -7.09375 19.066406 -7.378906 19.921875 -7.953125 Z M 22.34375 -1.125 "/></g></g></g><g fill="#1abc9c" fill-opacity="1"><g transform="translate(173.806992, 205.287234)"><g><path d="M 15 -28.296875 C 19.625 -28.296875 23.148438 -27.242188 25.578125 -25.140625 C 28.003906 -23.035156 29.21875 -19.804688 29.21875 -15.453125 L 29.21875 0 L 20.140625 0 L 20.140625 -3.59375 C 18.734375 -0.882812 15.992188 0.46875 11.921875 0.46875 C 9.765625 0.46875 7.894531 0.09375 6.3125 -0.65625 C 4.738281 -1.414062 3.550781 -2.4375 2.75 -3.71875 C 1.945312 -5.007812 1.546875 -6.472656 1.546875 -8.109375 C 1.546875 -10.742188 2.550781 -12.789062 4.5625 -14.25 C 6.582031 -15.707031 9.703125 -16.4375 13.921875 -16.4375 L 19.46875 -16.4375 C 19.289062 -19.382812 17.320312 -20.859375 13.5625 -20.859375 C 12.226562 -20.859375 10.875 -20.640625 9.5 -20.203125 C 8.132812 -19.773438 6.972656 -19.1875 6.015625 -18.4375 L 2.71875 -25.0625 C 4.257812 -26.09375 6.132812 -26.890625 8.34375 -27.453125 C 10.550781 -28.015625 12.769531 -28.296875 15 -28.296875 Z M 14.640625 -5.703125 C 15.765625 -5.703125 16.753906 -5.972656 17.609375 -6.515625 C 18.472656 -7.066406 19.09375 -7.875 19.46875 -8.9375 L 19.46875 -11.34375 L 15.25 -11.34375 C 12.40625 -11.34375 10.984375 -10.40625 10.984375 -8.53125 C 10.984375 -7.664062 11.304688 -6.976562 11.953125 -6.46875 C 12.609375 -5.957031 13.503906 -5.703125 14.640625 -5.703125 Z M 14.640625 -5.703125 "/></g></g></g><g fill="#1abc9c" fill-opacity="1"><g transform="translate(202.152452, 205.287234)"><g><path d="M 3.140625 -38.109375 L 12.890625 -38.109375 L 12.890625 0 L 3.140625 0 Z M 3.140625 -38.109375 "/></g></g></g><g fill="#1abc9c" fill-opacity="1"><g transform="translate(214.322159, 205.287234)"><g><path d="M 31.59375 -13.859375 C 31.59375 -13.796875 31.539062 -12.992188 31.4375 -11.453125 L 11.203125 -11.453125 C 11.609375 -10.015625 12.398438 -8.910156 13.578125 -8.140625 C 14.765625 -7.367188 16.25 -6.984375 18.03125 -6.984375 C 19.363281 -6.984375 20.515625 -7.171875 21.484375 -7.546875 C 22.460938 -7.921875 23.453125 -8.539062 24.453125 -9.40625 L 29.578125 -4.0625 C 26.878906 -1.039062 22.925781 0.46875 17.71875 0.46875 C 14.46875 0.46875 11.609375 -0.144531 9.140625 -1.375 C 6.671875 -2.613281 4.757812 -4.328125 3.40625 -6.515625 C 2.0625 -8.710938 1.390625 -11.195312 1.390625 -13.96875 C 1.390625 -16.707031 2.046875 -19.160156 3.359375 -21.328125 C 4.679688 -23.503906 6.503906 -25.207031 8.828125 -26.4375 C 11.160156 -27.675781 13.78125 -28.296875 16.6875 -28.296875 C 19.46875 -28.296875 21.984375 -27.722656 24.234375 -26.578125 C 26.492188 -25.429688 28.285156 -23.769531 29.609375 -21.59375 C 30.929688 -19.414062 31.59375 -16.835938 31.59375 -13.859375 Z M 16.75 -21.359375 C 15.238281 -21.359375 13.976562 -20.929688 12.96875 -20.078125 C 11.957031 -19.222656 11.316406 -18.0625 11.046875 -16.59375 L 22.4375 -16.59375 C 22.164062 -18.0625 21.523438 -19.222656 20.515625 -20.078125 C 19.503906 -20.929688 18.25 -21.359375 16.75 -21.359375 Z M 16.75 -21.359375 "/></g></g></g><g fill="#ff914d" fill-opacity="1"><g transform="translate(243.392929, 205.287234)"><g><path d="M 21.265625 -28.296875 C 24.722656 -28.296875 27.503906 -27.269531 29.609375 -25.21875 C 31.710938 -23.164062 32.765625 -20.066406 32.765625 -15.921875 L 32.765625 0 L 23.015625 0 L 23.015625 -14.328125 C 23.015625 -18.128906 21.488281 -20.03125 18.4375 -20.03125 C 16.757812 -20.03125 15.414062 -19.484375 14.40625 -18.390625 C 13.394531 -17.296875 12.890625 -15.648438 12.890625 -13.453125 L 12.890625 0 L 3.140625 0 L 3.140625 -27.84375 L 12.421875 -27.84375 L 12.421875 -24.8125 C 13.523438 -25.9375 14.828125 -26.796875 16.328125 -27.390625 C 17.835938 -27.992188 19.484375 -28.296875 21.265625 -28.296875 Z M 21.265625 -28.296875 "/></g></g></g><g fill="#1abc9c" fill-opacity="1"><g transform="translate(275.232767, 205.287234)"><g><path d="M 22.34375 -1.125 C 21.519531 -0.613281 20.515625 -0.222656 19.328125 0.046875 C 18.148438 0.328125 16.894531 0.46875 15.5625 0.46875 C 11.9375 0.46875 9.144531 -0.421875 7.1875 -2.203125 C 5.238281 -3.984375 4.265625 -6.640625 4.265625 -10.171875 L 4.265625 -19.515625 L 0.203125 -19.515625 L 0.203125 -26.8125 L 4.265625 -26.8125 L 4.265625 -34.046875 L 14.015625 -34.046875 L 14.015625 -26.8125 L 20.390625 -26.8125 L 20.390625 -19.515625 L 14.015625 -19.515625 L 14.015625 -10.265625 C 14.015625 -9.273438 14.28125 -8.5 14.8125 -7.9375 C 15.34375 -7.375 16.054688 -7.09375 16.953125 -7.09375 C 18.078125 -7.09375 19.066406 -7.378906 19.921875 -7.953125 Z M 22.34375 -1.125 "/></g></g></g><g clip-path="url(#b49f672a93)"><path fill="#ff914d" d="M 246.492188 181.949219 L 268.90625 181.949219 L 268.90625 205.066406 L 246.492188 205.066406 Z M 246.492188 181.949219 " fill-opacity="1" fill-rule="nonzero"/></g><g clip-path="url(#3fe08d0179)"><g clip-path="url(#b2b1b9a97e)"><g clip-path="url(#74fd503b97)"><path fill="#ffffff" d="M 243.929688 209.6875 L 253.03125 181.175781 L 267.398438 185.761719 L 258.296875 214.273438 Z M 243.929688 209.6875 " fill-opacity="1" fill-rule="nonzero"/></g></g></g><g clip-path="url(#f1ac79073c)"><g clip-path="url(#956abb879b)"><g clip-path="url(#0cab962049)"><path fill="#000000" d="M 257.003906 186.625 L 261.003906 187.902344 L 259.726562 191.902344 L 255.726562 190.625 Z M 257.003906 186.625 " fill-opacity="1" fill-rule="nonzero"/></g></g></g></svg>